<?xml version="1.0" encoding="iso-8859-1"?>
<!-- Uploaded to: SVG Repo, www.svgrepo.com, Generator: SVG Repo Mixer Tools -->
<!DOCTYPE svg PUBLIC "-//W3C//DTD SVG 1.1//EN" "http://www.w3.org/Graphics/SVG/1.1/DTD/svg11.dtd">
<svg fill="#000000" version="1.1" id="Capa_1" xmlns="http://www.w3.org/2000/svg" xmlns:xlink="http://www.w3.org/1999/xlink" 
	 width="800px" height="800px" viewBox="0 0 31.938 31.938"
	 xml:space="preserve">
<g>
	<path d="M10.335,16.75l-1.306-1.184l1.554-0.436l-0.805-1.799l2.135,0.7l0.625-2.036l1.331,1.542l1.718-1.791l0.925,1.937
		l2.013-0.575l-0.322,1.685l1.646,0.58l-0.919,1.268c0.148,0.45,0.25,0.924,0.25,1.422c0,2.502-2.027,4.526-4.525,4.526
		c-2.5,0-4.526-2.024-4.526-4.526c0-0.252,0.022-0.504,0.062-0.746C10.221,17.121,10.279,16.938,10.335,16.75z M21.007,17.865
		l-2.748,5.404h-1.365c0,0-0.619,1.902-2.324,2.002c-1.703,0.099-2.349-2.002-2.349-2.002l-2.966,0.646l-0.248,8.022h9.775v-0.039
		l0.173-5.31l0.038,0.044l3.938-7.792L21.007,17.865z M12.169,6.424c0-1.156,0.922-3.875,2.185-3.875
		c1.263,0,2.186,2.719,2.186,3.875c0,0.916-0.539,1.74-1.352,2.086v0.46L15.13,9.004l0.004,0.178l-1.463,0.163V9.119
		c-0.056-0.04-0.097-0.112-0.097-0.238V8.532C12.729,8.2,12.169,7.366,12.169,6.424z M12.477,6.424c0,0.849,0.522,1.594,1.301,1.854
		l0.104,0.035v0.543c0.023-0.001,0.05-0.001,0.078-0.001l0.759-0.07c0.082,0,0.129-0.002,0.161-0.008V8.298l0.101-0.037
		c0.747-0.274,1.25-1.013,1.25-1.837c0-1.145-0.888-3.566-1.877-3.566C13.365,2.858,12.477,5.28,12.477,6.424z M15.136,9.305
		l-1.464,0.163v0.108c-0.014,0.058,0.004,0.136,0.015,0.175l0.018,0.062l1.355-0.149l0.067-0.023l0.002-0.065
		c0.003-0.021,0.008-0.061,0.008-0.185L15.136,9.305z M13.805,10.046c0.131,0.146,0.337,0.221,0.61,0.222h0.008
		c0.466,0,0.625-0.206,0.677-0.38l0.033-0.112l-1.428,0.159L13.805,10.046z M17.474,6.026h1.977V5.542h-1.977V6.026z M11.401,5.542
		H9.427v0.483h1.974V5.542z M14.66,0h-0.483v1.975h0.483V0z M17.487,1.13L17.1,0.843l-1.174,1.588l0.39,0.287L17.487,1.13z
		 M17.075,4.222l1.875-0.624L18.798,3.14l-1.874,0.623L17.075,4.222z M11.902,3.765l-1.874-0.624L9.875,3.599l1.874,0.624
		L11.902,3.765z M12.951,2.431l-1.174-1.587l-0.389,0.287l1.174,1.588L12.951,2.431z"/>
</g>
</svg>